<svg width="32" height="32" viewBox="0 0 32 32" fill="none" xmlns="http://www.w3.org/2000/svg">
<circle cx="16" cy="16" r="16" fill="#00522C"/>
<path d="M17.2 6H14.8V8.3291C12.2159 8.75109 10.4057 10.3909 10.4122 12.6814C10.4122 14.852 12.0076 16.0997 14.5802 16.742L16.3588 17.1849C18.0458 17.5984 19.1603 18.1078 19.1679 19.2817C19.1603 20.5736 17.8931 21.4374 16.0458 21.4374C14.2748 21.4374 12.9008 20.6696 12.7863 19.0823H10C10.1006 21.7215 11.8971 23.3469 14.8 23.7034V26H17.2V23.7187C20.251 23.3872 21.9932 21.6883 22 19.3038C21.9924 16.6829 19.7557 15.4869 17.4046 14.948L15.9389 14.5936C14.6565 14.2983 13.2672 13.7741 13.2824 12.5116C13.2901 11.3747 14.3435 10.5404 16.1145 10.5404C17.8015 10.5404 18.916 11.3008 19.0611 12.5855H21.7863C21.7386 10.3091 19.9452 8.62491 17.2 8.28517V6Z" fill="white"/>
</svg>
