<svg fill="none" height="30" viewBox="0 0 84 30" width="84" xmlns="http://www.w3.org/2000/svg"><rect fill="#e6f8fa" height="29" rx="4" width="83" x=".466797" y=".5"/><path d="m9.47106 20.5h6.66194v-1.5462h-4.8175v-2.7791h4.4347v-1.5461h-4.4347v-2.7643h4.7777v-1.5461h-6.62214zm9.89594-7.6364h-1.9091l2.2671 3.8182-2.3267 3.8182h1.9091l1.6008-2.7493 1.6158 2.7493h1.8941l-2.3416-3.8182 2.3019-3.8182h-1.9041l-1.5661 2.8189zm9.4473 7.7855c1.919 0 3.142-1.1384 3.2713-2.7592h-1.7202c-.1541.8203-.7457 1.2926-1.5362 1.2926-1.1236 0-1.8494-.9396-1.8494-2.5007 0-1.5412.7407-2.4659 1.8494-2.4659.865 0 1.397.5568 1.5362 1.2926h1.7202c-.1243-1.6555-1.4169-2.7443-3.2813-2.7443-2.2372 0-3.6491 1.6158-3.6491 3.9474 0 2.3118 1.3771 3.9375 3.6591 3.9375zm6.5488-4.6235c0-1.1037.6861-1.7401 1.6506-1.7401.9446 0 1.5014.6016 1.5014 1.6307v4.5838h1.7997v-4.8622c0-1.8445-1.044-2.8736-2.63-2.8736-1.1733 0-1.919.532-2.272 1.397h-.0895v-3.843h-1.7599v10.1818h1.7997zm8.9837 4.6285c1.1981 0 1.914-.5618 2.2422-1.2031h.0596v1.049h1.7301v-5.1108c0-2.0185-1.6456-2.625-3.1022-2.625-1.6059 0-2.8388.7159-3.2365 2.108l1.6803.2386c.179-.522.6861-.9695 1.5661-.9695.8352 0 1.2926.4276 1.2926 1.1783v.0298c0 .5171-.5419.5419-1.8892.6861-1.4815.1591-2.8984.6016-2.8984 2.3217 0 1.5015 1.0987 2.2969 2.5554 2.2969zm.4673-1.3224c-.7507 0-1.2876-.3431-1.2876-1.0043 0-.691.6015-.9794 1.4069-1.0937.4723-.0647 1.4169-.184 1.6506-.3729v.8999c0 .8501-.6861 1.571-1.7699 1.571zm7.174-3.3061c0-1.1037.6662-1.7401 1.6158-1.7401.9297 0 1.4865.6115 1.4865 1.6307v4.5838h1.7997v-4.8622c.005-1.8296-1.0391-2.8736-2.6151-2.8736-1.1434 0-1.9289.5469-2.277 1.397h-.0894v-1.2976h-1.7202v7.6364h1.7997zm10.0526 7.4673c2.0632 0 3.5845-.9446 3.5845-2.8686v-7.7607h-1.7749v1.2628h-.0994c-.2734-.5518-.8452-1.3622-2.1925-1.3622-1.7649 0-3.152 1.3821-3.152 3.8928 0 2.4907 1.3871 3.7336 3.147 3.7336 1.3076 0 1.9191-.701 2.1975-1.2628h.0895v1.4468c0 1.0937-.7458 1.5561-1.7699 1.5561-1.0838 0-1.5611-.5121-1.7798-.9297l-1.6208.3928c.3281 1.039 1.4269 1.8991 3.3708 1.8991zm.0149-4.5142c-1.1882 0-1.8147-.9247-1.8147-2.3317 0-1.3871.6165-2.4062 1.8147-2.4062 1.1584 0 1.7947.9595 1.7947 2.4062 0 1.4567-.6463 2.3317-1.7947 2.3317zm8.7947 1.6704c1.7798 0 3.0029-.87 3.321-2.1974l-1.6804-.1889c-.2436.6463-.8402.9844-1.6157.9844-1.1634 0-1.934-.7657-1.9489-2.0732h5.3196v-.5518c0-2.6797-1.6108-3.858-3.49-3.858-2.1875 0-3.6144 1.6058-3.6144 3.9624 0 2.3963 1.407 3.9225 3.7088 3.9225zm-1.919-4.6882c.0547-.9744.7756-1.7947 1.8494-1.7947 1.0341 0 1.7301.7557 1.7401 1.7947z" fill="#0e828c"/></svg>