<svg fill="none" height="29" viewBox="0 0 73 29" width="73" xmlns="http://www.w3.org/2000/svg"><rect fill="#efecfe" height="29" rx="4" width="73"/><path d="m9.00426 20h6.66194v-1.5462h-4.8175v-2.7791h4.4347v-1.5461h-4.4347v-2.7643h4.7777v-1.54612h-6.62214zm9.89594-7.6364h-1.9091l2.2671 3.8182-2.3267 3.8182h1.9091l1.6008-2.7493 1.6158 2.7493h1.8941l-2.3416-3.8182 2.3019-3.8182h-1.9041l-1.5661 2.8189zm6.4034 10.5h1.7997v-4.0667h.0746c.2834.5568.875 1.3373 2.1875 1.3373 1.7997 0 3.147-1.4268 3.147-3.9424 0-2.5455-1.387-3.9276-3.152-3.9276-1.3473 0-1.9091.8104-2.1825 1.3622h-.1044v-1.2628h-1.7699zm1.7649-6.6818c0-1.4815.6364-2.441 1.7948-2.441 1.1981 0 1.8146 1.0191 1.8146 2.441 0 1.4318-.6264 2.4759-1.8146 2.4759-1.1485 0-1.7948-.9943-1.7948-2.4759zm8.7848-6.36362h-1.7997v10.18182h1.7997zm5.1817 10.33092c2.2372 0 3.6591-1.5759 3.6591-3.9375 0-2.3664-1.4219-3.9474-3.6591-3.9474s-3.6591 1.581-3.6591 3.9474c0 2.3616 1.4219 3.9375 3.6591 3.9375zm.0099-1.4417c-1.2379 0-1.8444-1.1037-1.8444-2.5007s.6065-2.5156 1.8444-2.5156c1.2181 0 1.8246 1.1186 1.8246 2.5156s-.6065 2.5007-1.8246 2.5007zm5.1767 1.2926h1.7997v-4.4893c0-.9695.7308-1.6556 1.7202-1.6556.3032 0 .6811.0547.8352.1044v-1.6555c-.1641-.0299-.4474-.0497-.6463-.0497-.875 0-1.6058.4971-1.8842 1.3821h-.0796v-1.2728h-1.745zm8.617.1491c1.7798 0 3.0028-.87 3.321-2.1974l-1.6804-.1889c-.2436.6463-.8402.9844-1.6157.9844-1.1634 0-1.934-.7657-1.9489-2.0732h5.3196v-.5518c0-2.6797-1.6108-3.858-3.4901-3.858-2.1875 0-3.6143 1.6058-3.6143 3.9624 0 2.3963 1.407 3.9225 3.7088 3.9225zm-1.919-4.6882c.0547-.9744.7755-1.7947 1.8494-1.7947 1.0341 0 1.7301.7557 1.7401 1.7947zm6.8371 4.5391h1.7998v-4.4893c0-.9695.7308-1.6556 1.7201-1.6556.3033 0 .6811.0547.8353.1044v-1.6555c-.1641-.0299-.4475-.0497-.6463-.0497-.875 0-1.6059.4971-1.8843 1.3821h-.0795v-1.2728h-1.7451z" fill="#5322e5"/></svg>