<svg fill="none" height="24" viewBox="0 0 24 24" width="24" xmlns="http://www.w3.org/2000/svg"><path d="m12 24c6.6274 0 12-5.3726 12-12 0-6.62742-5.3726-12-12-12-6.62742 0-12 5.37258-12 12 0 6.6274 5.37258 12 12 12z" fill="#473bcb"/><g fill="#fff"><path d="m11.9997 4.5v5.5449l4.6866 2.0942z"/><path d="m11.9997 4.5-4.6872 7.6391 4.6872-2.0942z"/><path d="m11.9997 15.7323v3.7677l4.6897-6.4882z"/><path d="m11.9997 19.5v-3.7677l-4.6872-2.7205z"/><path d="m11.9997 14.8603 4.6866-2.7212-4.6866-2.0929z"/><path d="m7.3125 12.1391 4.6872 2.7212v-4.8141z"/></g></svg>