<svg fill="none" height="32" viewBox="0 0 32 32" width="32" xmlns="http://www.w3.org/2000/svg"><path clip-rule="evenodd" d="m32 16c0 8.8366-7.1634 16-16 16-8.83656 0-16-7.1634-16-16 0-8.83656 7.16344-16 16-16 8.8366 0 16 7.16344 16 16zm-6.04-8h-2.89l-4.574 4.523c-.6655.6569-1.5629 1.0252-2.498 1.0252s-1.8325-.3683-2.498-1.0252l-4.57-4.523h-2.895l6.02 5.957c1.0516 1.0361 2.4687 1.6169 3.945 1.6169s2.8934-.5808 3.945-1.6169zm-19.96 16.563h2.894l4.61-4.563c.6655-.6569 1.5629-1.0252 2.498-1.0252s1.8325.3683 2.498 1.0252l4.605 4.562h2.895l-6.055-5.992c-1.0516-1.0361-2.4687-1.6169-3.945-1.6169s-2.8934.5808-3.945 1.6169z" fill="#353f52" fill-rule="evenodd"/></svg>