<svg fill="none" height="20" viewBox="0 0 24 20" width="24" xmlns="http://www.w3.org/2000/svg"><path clip-rule="evenodd" d="m24 2.31776c-.8972.37383-1.7944.67289-2.8411.74766 1.0467-.59813 1.7944-1.57009 2.1682-2.691588-.972.598131-2.0187.971958-3.1402 1.196258-.8972-.971959-2.1682-1.57009-3.514-1.57009-2.6916 0-4.9346 2.16822-4.9346 4.93458 0 .37383.0748.74766.1495 1.1215-4.1121-.2243-7.70088-2.16823-10.16817-5.158884-.4486.747664-.6729 1.570094-.6729 2.467294 0 1.71962.8972 3.21495 2.16822 4.11215-.82243 0-1.57009-.2243-2.242987-.59814v.07477c0 2.39252 1.719627 4.33643 3.962617 4.78503-.4486.0748-.82243.1495-1.27103.1495-.29906 0-.59813.0001-.89719-.0747.59813 1.9439 2.46728 3.3645 4.56074 3.4392-1.64486 1.3458-3.81308 2.0935-6.13084 2.0935-.37383 0-.822428 0-1.19626-.0748 2.24299 1.3458 4.85981 2.1683 7.62617 2.1683 9.04673 0 13.98133-7.4767 13.98133-13.98136 0-.2243 0-.44859 0-.59813.8972-.74766 1.7196-1.57009 2.3925-2.54205z" fill="#1da1f2" fill-rule="evenodd"/></svg>