<svg width="65" height="24" viewBox="0 0 65 24" fill="none" xmlns="http://www.w3.org/2000/svg">
<g clip-path="url(#clip0)">
<rect x="0.333984" width="64" height="24" rx="4" fill="#ECF5FE"/>
<path d="M14.3443 17H16.1639L18.2072 9.85582H18.2868L20.3251 17H22.1447L25.0183 6.81818H23.0346L21.2001 14.3054H21.1106L19.1468 6.81818H17.3422L15.3833 14.3004H15.2889L13.4544 6.81818H11.4707L14.3443 17ZM27.6358 17.1541C28.834 17.1541 29.5499 16.5923 29.878 15.951H29.9377V17H31.6678V11.8892C31.6678 9.87074 30.0222 9.2642 28.5655 9.2642C26.9597 9.2642 25.7267 9.98011 25.329 11.3722L27.0094 11.6108C27.1884 11.0888 27.6955 10.6413 28.5755 10.6413C29.4107 10.6413 29.8681 11.0689 29.8681 11.8196V11.8494C29.8681 12.3665 29.3262 12.3913 27.9789 12.5355C26.4973 12.6946 25.0804 13.1371 25.0804 14.8572C25.0804 16.3587 26.1792 17.1541 27.6358 17.1541ZM28.1032 15.8317C27.3525 15.8317 26.8155 15.4886 26.8155 14.8274C26.8155 14.1364 27.4171 13.848 28.2225 13.7337C28.6948 13.669 29.6394 13.5497 29.873 13.3608V14.2607C29.873 15.1108 29.187 15.8317 28.1032 15.8317ZM35.2772 6.81818H33.4775V17H35.2772V6.81818ZM38.9276 6.81818H37.1278V17H38.9276V6.81818ZM44.1589 17.1491C45.9387 17.1491 47.1618 16.2791 47.4799 14.9517L45.7995 14.7628C45.5559 15.4091 44.9593 15.7472 44.1838 15.7472C43.0204 15.7472 42.2498 14.9815 42.2349 13.674H47.5545V13.1222C47.5545 10.4425 45.9437 9.2642 44.0645 9.2642C41.877 9.2642 40.4501 10.87 40.4501 13.2266C40.4501 15.6229 41.8571 17.1491 44.1589 17.1491ZM42.2399 12.4609C42.2946 11.4865 43.0154 10.6662 44.0893 10.6662C45.1234 10.6662 45.8194 11.4219 45.8294 12.4609H42.2399ZM52.8903 9.36364H51.3839V7.53409H49.5842V9.36364H48.5004V10.7557H49.5842V15.0014C49.5742 16.4382 50.6183 17.1442 51.9705 17.1044C52.4826 17.0895 52.8356 16.9901 53.0295 16.9254L52.7262 15.5185C52.6268 15.5433 52.4229 15.5881 52.1992 15.5881C51.7468 15.5881 51.3839 15.429 51.3839 14.7031V10.7557H52.8903V9.36364Z" fill="#0C6CF2"/>
</g>
<defs>
<clipPath id="clip0">
<rect x="0.333984" width="64" height="24" rx="4" fill="white"/>
</clipPath>
</defs>
</svg>
